# xmcd
#
# Track frame offsets: 
#        150
#        20755
#        42412
#        59419
#        88609
#        104604
#        127843
#        146498
#        166007
#        189392
#
# Disc length: 2792 seconds
#
# Revision: 1
# Processed by: cddbd v1.5.2PL0 Copyright (c) Steve Scherf et al.
# Submitted via: ExactAudioCopy v0.99pb5
#
DISCID=830ae60a
DTITLE=Shilts - HeadBoppin'
DYEAR=2006
DGENRE=Jazz
TTITLE0=Look What's Happened
TTITLE1=I Knew You'd Like This
TTITLE2=Break The Mold
TTITLE3=Good Evans
TTITLE4=Got Love
TTITLE5=HeadBoppin'
TTITLE6=Say Something
TTITLE7=Tuesday Heartbreak
TTITLE8=2 Pesos For Bud
TTITLE9=Mrs. Magic
EXTD=YEAR: 2006
EXTT0=
EXTT1=
EXTT2=
EXTT3=
EXTT4=
EXTT5=
EXTT6=
EXTT7=
EXTT8=
EXTT9=
PLAYORDER=
